<svg viewBox="0 0 91.46 39.83" xmlns="http://www.w3.org/2000/svg"><g fill="#fff"><path d="m32.55.19h7l-29.79 28.51 28.3.34c.16 0 .12-.11 0 0l-2.28 2h-35.78l31.42-28.49h-20.55l2.37-2.36z"/><path d="m26.7 26.13c-.2 1-.56 2.66-.61 3.07h-2.37c0-.24.08-.63.15-1a2.43 2.43 0 0 1 -2.2 1.2c-2 0-2.24-1.86-1.84-3.78.63-2.89 2.05-3.64 5-4.08l.48-.08.33-1.51c.19-.87.12-1.46-.63-1.46s-.91.63-1.13 1.5l-.09.38h-2.4v-.21c.34-1.55.76-3.58 3.77-3.58 2.5 0 3.28 1.31 2.86 3.33zm-1.79-2.78-.37.07a2.42 2.42 0 0 0 -2.26 2.08c-.19.84-.21 1.76.66 1.76s1.31-.85 1.68-2.55z"/><path d="m28.53 21c.43-2.06.71-3.32.86-4.21h2.3a16.78 16.78 0 0 1 -.31 1.84 3.07 3.07 0 0 1 2.95-2l-.64 2.87c-1.63 0-2.58.67-3.1 3.09l-1.38 6.61h-2.43z"/><path d="m32.14 29.2 2.21-10.36h-1.35l.44-2.08h1.32l.27-1.3c.38-1.71 1.08-3.13 3.26-3.13a5.45 5.45 0 0 1 1.18.14l-.45 2.06a2 2 0 0 0 -.54 0c-.66 0-.88.45-1 1.2l-.23 1.08h1.51l-.45 2.08h-1.51l-2.21 10.31z"/><path d="m61.33 24.46-.76 1.95c-.32.79-.34 1.34.22 1.34s.91-.62 1.16-1.26l.21-.53h2.64l-.13.36c-.81 2.09-1.9 3.76-4.6 3.76-3 0-2.81-2.2-1.86-4.57l1.66-4.13c.88-2.2 2.05-4.07 4.75-4.07 2.93 0 2.9 2 1.93 4.39l-1.1 2.76zm2.34-2.15.55-1.38c.32-.81.43-1.39-.21-1.39s-.86.39-1.25 1.39l-.56 1.38z"/><path d="m67.3 25.93-.25.61c-.29.74-.36 1.32.2 1.32s.69-.31.93-.88a2.19 2.19 0 0 0 -.39-2.55 3.62 3.62 0 0 1 -.7-4.3 3.91 3.91 0 0 1 3.81-2.83c2.47 0 2.83 1.67 2.08 3.58l-.18.46h-2.47l.22-.59c.33-.86.34-1.26-.11-1.26s-.62.3-.81.81-.26 1 .38 1.84c1.41 1.76 1.6 2.83.85 4.79s-1.93 3.15-4.18 3.15c-2.82 0-2.88-1.87-2-3.9l.1-.25z"/><path d="m74.77 17.49h2.7l-5 12.39h-2.67zm1.6-4h2.71l-1.08 2.73h-2.7z"/><path d="m80.23 28.77c-1.22 3.05-2 5.32-5.35 5.32-2.94 0-3-1.7-2.35-3.33v-.12h2.72l-.05.14c-.15.43-.28 1 .36 1s1.08-.91 1.61-2.22l.45-1.12a2.74 2.74 0 0 1 -2.16 1.12c-2 0-1.77-1.94-1-3.92l1.8-4.46c.67-1.68 1.75-3.88 3.85-3.88 1 0 1.44.52 1.51 1.15a7.75 7.75 0 0 1 .52-1h2.58c-.39.91-.82 2-1.41 3.42zm-1.16-7.69-1.79 4.48c-.38 1-.38 1.48.22 1.48s1-.59 1.5-1.82l1.62-4.06c.28-.74.42-1.42-.25-1.42s-.96.5-1.3 1.34z"/><path d="m83.8 21.2c.88-2.21 1.29-3.25 1.46-3.71h2.64c-.09.3-.2.63-.31.91a3.29 3.29 0 0 1 2.41-1.1c1.58 0 1.85 1.28 1.13 3.07l-3.81 9.51h-2.76l3.53-8.83c.35-.84.28-1.31-.23-1.31s-1 .47-1.44 1.7l-3.42 8.44h-2.67z"/><path d="m50.65 0h5.74c7.86 0 9.39 6.1 5.77 16.51-3.37 9.72-7.16 14.55-15.39 14.55h-8.48zm-5.29 28h1.64c5.3 0 8.33-2.52 11.45-11.58 3.34-9.72 2.21-13.3-3.12-13.3z"/><path d="m43.1 34.8h.44l-.54 1.2h1.17l-.17.33h-1.2l-.43.87a4.69 4.69 0 0 1 -4.08 2.63v-.34a4 4 0 0 0 3.61-2.26l.44-.9h-2.17l-.84 1.67h-.46l.84-1.71h-1.09l.16-.33h1.09l.57-1.16h.46l-.57 1.2h2.18zm.5.82a6.46 6.46 0 0 0 .27-1.1l.39-.08a4.79 4.79 0 0 1 -.24 1.1zm.92-.1a5.12 5.12 0 0 0 .26-1.11l.4-.08a5.27 5.27 0 0 1 -.24 1.1z"/><path d="m51.09 37.12-.19.38h-5.25l.19-.38z"/><path d="m58.92 35.17a8.29 8.29 0 0 1 -6.26 4.56v-.33a11.88 11.88 0 0 0 2.28-.71 7.44 7.44 0 0 0 3.31-3.17h-4.34l.17-.35z"/><path d="m63 37.11a5.52 5.52 0 0 1 -1.16 1.54 5 5 0 0 1 -2.62 1.14v-.32a4.46 4.46 0 0 0 2.23-.89 4.74 4.74 0 0 0 1.11-1.43c0-.06.09-.16.14-.28h-2.59l.16-.32h5.19l-.17.32h-2.14zm2-2.11-.16.33h-3.48l.16-.33zm.16.78a3.9 3.9 0 0 0 .13-1.12l.41-.09a3.64 3.64 0 0 1 -.11 1.1zm1-.15a3.84 3.84 0 0 0 .13-1.1l.4-.1a3.87 3.87 0 0 1 -.1 1.1z"/><path d="m72.29 34.8h.44l-.58 1.2h1.17l-.16.33h-1.16l-.42.87a4.72 4.72 0 0 1 -4.09 2.63v-.34a4.05 4.05 0 0 0 3.62-2.26l.44-.9h-2.19l-.84 1.67h-.46l.84-1.71h-1.08l.18-.29h1.08l.57-1.16h.46l-.59 1.16h2.19zm.5.82a4.92 4.92 0 0 0 .27-1.1l.4-.08a5.51 5.51 0 0 1 -.25 1.1zm.93-.1a5.69 5.69 0 0 0 .28-1.11l.4-.08a5.08 5.08 0 0 1 -.23 1.1z"/><path d="m77 39.83h-.48l1.45-3a19.67 19.67 0 0 1 -3.35 1.36v-.36a18.38 18.38 0 0 0 6.11-3.12l.35.21a24.39 24.39 0 0 1 -2.45 1.57z"/><path d="m81.26 39.22a7.54 7.54 0 0 0 3.51-1.08 10.94 10.94 0 0 0 3-2.58l.28.21a9.85 9.85 0 0 1 -6.86 3.83zm3.24-2.85a4 4 0 0 0 -1.5-.85l.38-.34a4.75 4.75 0 0 1 1.59.85z"/></g></svg>